# ProBuilder 4.4.0
# https://unity3d.com/unity/features/worldbuilding/probuilder
# 26/11/2020 14:12:34

mtllib ./building.mtl
o building

g Cube
v 10 0 0
v -10 0 0
v 10 4 0
v -10 4 0
v -10 0 -1
v -10 4 -1
v 10 0 -1
v 10 4 -1
v 10 5.0001 0
v -10 5.0001 0
v 10 5.0001 -1
v -10 5.0001 -1
v -10 4 -2.0001
v 10 4 -2.0001

vt 10 0
vt -10 0
vt 10 4
vt -10 4
vt 0 0
vt -1 0
vt 0 4
vt -1 4
vt 1 0
vt 1 4
vt -10 -1
vt 10 -1
vt 10 5.0001
vt -10 5.0001
vt 1 5.0001
vt 0 5.0001
vt -1 5.0001
vt 10 1.414143
vt -10 1.414143
vt 10 2.828498
vt -10 2.828498
vt -10 -2.0001
vt 10 -2.0001
vt 2.0001 4

vn 0 0 1
vn -1 0 0
vn 0 0 -1
vn 1 0 0
vn 0 1 0
vn 0 -1 0
vn 0 0.7071068 -0.7071068
vn 0 0 0
vn -0.5 0 0
vn 0.5 0 0

usemtl ProBuilder_Default_URP
f 3/3/1 4/4/1 2/2/1 1/1/1
f 4/7/2 6/8/2 5/6/2 2/5/2
f 6/3/3 8/4/3 7/2/3 5/1/3
f 8/10/4 3/7/4 1/5/4 7/9/4
f 11/11/5 12/12/5 10/1/5 9/2/5
f 1/1/6 2/2/6 5/11/6 7/12/6
f 9/13/1 10/14/1 4/4/1 3/3/1
f 11/15/4 9/16/4 3/7/4 8/10/4
f 10/16/2 12/17/2 6/8/2 4/7/2
f 12/20/7 11/21/7 14/19/7 13/18/7
f 13/22/6 14/23/6 8/12/6 6/11/6
f 12/5/9 13/5/2 6/5/9 12/5/8
f 14/24/10 11/15/8 11/15/10 8/10/4

